<svg xmlns="http://www.w3.org/2000/svg" width="512" height="512" viewBox="0 0 512 512" fill="none">
  <rect width="512" height="512" rx="64" fill="#4F46E5"/>
  <path d="M256 128C185.31 128 128 185.31 128 256C128 326.69 185.31 384 256 384C326.69 384 384 326.69 384 256C384 185.31 326.69 128 256 128ZM256 352C202.98 352 160 309.02 160 256C160 202.98 202.98 160 256 160C309.02 160 352 202.98 352 256C352 309.02 309.02 352 256 352Z" fill="white"/>
  <path d="M256 192C235.39 192 219 208.39 219 229V283C219 303.61 235.39 320 256 320C276.61 320 293 303.61 293 283V229C293 208.39 276.61 192 256 192ZM272 283C272 292.16 264.16 300 255 300C245.84 300 238 292.16 238 283V229C238 219.84 245.84 212 255 212C264.16 212 272 219.84 272 229V283Z" fill="white"/>
</svg>
