<svg xmlns="http://www.w3.org/2000/svg" width="192" height="192" viewBox="0 0 192 192" fill="none">
  <rect width="192" height="192" rx="24" fill="#4F46E5"/>
  <path d="M96 48C69.49 48 48 69.49 48 96C48 122.51 69.49 144 96 144C122.51 144 144 122.51 144 96C144 69.49 122.51 48 96 48ZM96 132C76.12 132 60 115.88 60 96C60 76.12 76.12 60 96 60C115.88 60 132 76.12 132 96C132 115.88 115.88 132 96 132Z" fill="white"/>
  <path d="M96 72C88.27 72 82 78.27 82 86V106C82 113.73 88.27 120 96 120C103.73 120 110 113.73 110 106V86C110 78.27 103.73 72 96 72ZM102 106C102 109.31 99.31 112 96 112C92.69 112 90 109.31 90 106V86C90 82.69 92.69 80 96 80C99.31 80 102 82.69 102 86V106Z" fill="white"/>
</svg>
